<svg xmlns="http://www.w3.org/2000/svg" viewBox="80 110 134 80" shape-rendering="geometricPrecision" text-rendering="geometricPrecision" stroke="#0d00fa"><g fill="none" stroke-linecap="round" stroke-linejoin="round"><path d="M156.921 183.738c35.811-12.233 35.091 12.392 43.759-1.46-8.195-41.425-92.916 21.504-110.338-16.324-7.147-24.02 20.923-49.872 52.696-37.99-5.645 6.456-6.21 24.706.43 32.064-17.78-55.753 42.455-51.845 50.56-37.346 21.395-.182 20.573 6.888 8.232 12.776M133.7 176.115c-.762-16.659-7.06-27-21.925-26.115" stroke-width="6.2"/><path d="M199.329 157.758c-2.258-2.156-7.2-3.384-10.04-1.837M168.431 153.422c3.313-2.066 8.979-1.559 11.224 1.806M202.26 135.458c3.025 12.763-3.343 28.342-12.105 32.603M176.77 136.258c5.54-14.667-4.312-16.046-18.14-5.116" stroke-width="6"/></g></svg>